# xmcd
#
# Track frame offsets: 
#        150
#        11514
#        23914
#        35039
#        52322
#        66735
#        76847
#        89411
#        101772
#        114491
#        127671
#        145539
#        160961
#        175398
#        198837
#        212060
#        225920
#        238908
#        255161
#        268374
#
# Disc length: 3739 seconds
#
# Revision: 0
# Processed by: cddbd v1.5.2PL0 Copyright (c) Steve Scherf et al.
# Submitted via: ExactAudioCopy v1.0b3
#
DISCID=160e9914
DTITLE=John Lee Hooker - Anthology [CD3]
DYEAR=2016
DGENRE=Blues
TTITLE0=Boogie Chillun
TTITLE1=Leave My Wife Alone
TTITLE2=Let's Make It
TTITLE3=Before Sunrise
TTITLE4=Sugar Mama
TTITLE5=Want Ad Blues
TTITLE6=Drug Store Woman
TTITLE7=I Got a Letter
TTITLE8=Rock House Boogie
TTITLE9=Ground Hog Blues
TTITLE10=I'm Prison Bound
TTITLE11=Democrat Man
TTITLE12=Don't Go Baby
TTITLE13=I'm a Wanderin'
TTITLE14=You're Looking Good Tonight
TTITLE15=Dreamin' Blues
TTITLE16=I Like to See You Walk
TTITLE17=Five Long Years
TTITLE18=Let's Talk it Over
TTITLE19=Shake, Holler and Run
EXTD=
EXTT0=
EXTT1=
EXTT2=
EXTT3=
EXTT4=
EXTT5=
EXTT6=
EXTT7=
EXTT8=
EXTT9=
EXTT10=
EXTT11=
EXTT12=
EXTT13=
EXTT14=
EXTT15=
EXTT16=
EXTT17=
EXTT18=
EXTT19=
PLAYORDER=
